<svg width="25" height="25" viewBox="0 0 25 25" fill="none" xmlns="http://www.w3.org/2000/svg">
<path d="M12.5 2.08337C6.74483 2.08337 2.08338 6.74483 2.08338 12.5C2.08219 14.6868 2.76964 16.8184 4.04818 18.5924C5.32673 20.3664 7.13144 21.6928 9.20629 22.3834C9.72713 22.474 9.92192 22.1615 9.92192 21.8875C9.92192 21.6407 9.90838 20.8209 9.90838 19.948C7.29171 20.4302 6.61463 19.3105 6.40629 18.724C6.28858 18.424 5.78129 17.5 5.33858 17.2521C4.974 17.0573 4.45317 16.575 5.32504 16.5625C6.14588 16.549 6.73129 17.3177 6.92713 17.6302C7.86463 19.2052 9.36254 18.7625 9.96046 18.4896C10.0521 17.8125 10.325 17.3573 10.625 17.0969C8.30733 16.8365 5.88546 15.9375 5.88546 11.9532C5.88546 10.8198 6.28858 9.88337 6.95317 9.15317C6.849 8.89275 6.48442 7.82504 7.05733 6.39275C7.05733 6.39275 7.92921 6.11983 9.92192 7.4615C10.7699 7.22615 11.646 7.10769 12.5261 7.10942C13.4115 7.10942 14.2969 7.22608 15.1303 7.46046C17.1219 6.10629 17.9948 6.39379 17.9948 6.39379C18.5677 7.82608 18.2032 8.89379 18.099 9.15421C18.7625 9.88337 19.1667 10.8073 19.1667 11.9532C19.1667 15.9511 16.7323 16.8365 14.4146 17.0969C14.7917 17.4219 15.1178 18.0469 15.1178 19.024C15.1178 20.4167 15.1042 21.5365 15.1042 21.8886C15.1042 22.1615 15.3 22.4865 15.8209 22.3823C17.8886 21.6842 19.6854 20.3552 20.9583 18.5825C22.2312 16.8097 22.9161 14.6825 22.9167 12.5C22.9167 6.74483 18.2553 2.08337 12.5 2.08337Z" fill="white"/>
</svg>
